<svg xmlns="http://www.w3.org/2000/svg" width="25" height="24" viewBox="0 0 25 24">
    <g fill="none" fill-rule="evenodd">
        <g fill="#FFF" fill-rule="nonzero">
            <g>
                <g>
                    <path d="M24 12.07C24 5.405 18.627 0 12 0S0 5.404 0 12.07c0 6.025 4.388 11.02 10.125 11.925V15.56H7.078v-3.49h3.047V9.412c0-3.025 1.792-4.696 4.533-4.696 1.312 0 2.686.236 2.686.236v2.97H15.83c-1.491 0-1.956.93-1.956 1.886v2.264h3.328l-.532 3.489h-2.796v8.435C19.612 23.089 24 18.095 24 12.07z" transform="translate(-584 -6229) translate(0 5761) translate(59.125 64) translate(525 404)"/>
                </g>
            </g>
        </g>
    </g>
</svg>
