<svg xmlns="http://www.w3.org/2000/svg" width="24" height="24" viewBox="0 0 24 24">
    <g fill="none" fill-rule="evenodd">
        <g fill="#5E88A2">
            <g>
                <g>
                    <g>
                        <path d="M0 4.8c0-1.32 1.08-2.4 2.4-2.4h16.8c1.325 0 2.4 1.075 2.4 2.4v16.8c0 1.325-1.075 2.4-2.4 2.4H2.4C1.075 24 0 22.925 0 21.6V4.8zm2.4 2.4v14.4h16.8V7.2H2.4zM4.8 0h2.4v2.4H4.8V0zm9.6 0h2.4v2.4h-2.4V0zM12 9.6h4.8v4.8H12V9.6z" transform="translate(-314 -1720) translate(61 1708) translate(253 12) translate(1)"/>
                    </g>
                </g>
            </g>
        </g>
    </g>
</svg>
