<svg xmlns="http://www.w3.org/2000/svg" width="25" height="24" viewBox="0 0 25 24">
    <g fill="none" fill-rule="evenodd">
        <g fill="#FFF" fill-rule="nonzero">
            <g>
                <g>
                    <g>
                        <g transform="translate(-636 -6229) translate(0 5761) translate(59.125 64) translate(525 404) translate(52)">
                            <path d="M12 2.165c3.203 0 3.582.013 4.848.07 1.17.054 1.804.249 2.227.413.522.192.994.499 1.381.898.399.387.706.859.898 1.38.164.424.36 1.059.413 2.228.057 1.266.07 1.645.07 4.848s-.013 3.582-.07 4.848c-.054 1.169-.249 1.804-.413 2.227-.404 1.046-1.23 1.873-2.277 2.277-.423.164-1.058.36-2.227.413-1.265.057-1.645.07-4.848.07s-3.583-.013-4.848-.07c-1.17-.054-1.804-.249-2.227-.413-.522-.192-.994-.499-1.381-.898-.4-.387-.706-.86-.898-1.38-.164-.424-.36-1.059-.413-2.228-.057-1.266-.07-1.645-.07-4.848s.013-3.582.07-4.848c.054-1.17.249-1.804.413-2.227.192-.522.499-.994.898-1.381.387-.399.859-.706 1.38-.898.424-.164 1.059-.36 2.228-.413 1.266-.057 1.645-.07 4.848-.07m0-2.161c-3.258 0-3.667.014-4.946.072-1.28.059-2.151.263-2.913.56-.8.3-1.526.773-2.126 1.383-.61.6-1.082 1.325-1.384 2.126-.296.762-.499 1.635-.557 2.912C.018 8.33.004 8.742.004 12s.014 3.667.072 4.946c.059 1.28.261 2.15.557 2.911.302.8.774 1.526 1.384 2.125.6.61 1.325 1.083 2.126 1.384.762.297 1.635.5 2.912.558 1.276.058 1.688.072 4.946.072s3.667-.014 4.946-.072c1.28-.059 2.148-.261 2.91-.558 1.612-.623 2.886-1.897 3.51-3.509.296-.762.499-1.635.557-2.912.058-1.276.072-1.688.072-4.946s-.014-3.667-.072-4.946c-.059-1.28-.261-2.148-.558-2.91-.301-.8-.773-1.526-1.383-2.125-.6-.61-1.325-1.083-2.126-1.385-.762-.296-1.635-.499-2.912-.557C15.67.018 15.258.004 12 .004l.002-.002z"/>
                            <path d="M12 5.84c-3.402 0-6.16 2.758-6.16 6.16s2.758 6.16 6.16 6.16 6.16-2.758 6.16-6.16c0-1.634-.649-3.2-1.804-4.356C15.2 6.49 13.634 5.84 12 5.84zM12 16c-2.21 0-4-1.79-4-4s1.79-4 4-4 4 1.79 4 4c0 1.06-.421 2.078-1.172 2.828C14.078 15.578 13.061 16 12 16z"/>
                            <circle cx="18.404" cy="5.596" r="1.44"/>
                        </g>
                    </g>
                </g>
            </g>
        </g>
    </g>
</svg>
